<?xml version="1.0" encoding="UTF-8"?>
<svg id="Layer_1" xmlns="http://www.w3.org/2000/svg" version="1.1" viewBox="0 0 200 40">
  <!-- Generator: Adobe Illustrator 29.3.1, SVG Export Plug-In . SVG Version: 2.1.0 Build 151)  -->
  <defs>
    <style>
      .st0 {
        fill: #6d6e71;
      }

      .st1 {
        fill: #d71820;
      }
    </style>
  </defs>
  <path class="st0" d="M115.06,20.32c-2.47-3.22-1.87-7.84,1.35-10.31,1.27-.97,2.82-1.51,4.42-1.52h13.1l-1.18,3.2h-10.58c-1.24.06-2.19,1.11-2.14,2.34.02.41.15.81.38,1.15,1.63,2.51,4.41,4.27,6.15,6.85,2.47,3.19,1.88,7.78-1.31,10.24-1.25.97-2.79,1.5-4.38,1.52h-14.41l1.18-3.2h11.36c1.26-.08,2.22-1.16,2.14-2.42-.02-.37-.14-.73-.33-1.05-1.47-2.35-4-4.61-5.77-6.79h0ZM101.75,33.82h-7.15l9.33-25.31h7.15l-9.33,25.31h0ZM136.97,33.82h-7.17l9.33-25.31h7.15l-9.31,25.31ZM147.8,16.17c2.28-4.89,7.21-7.98,12.6-7.91h4.41c3.22.15,5.86,2.61,6.22,5.82.04.55.03,1.1-.04,1.65l-.19.87c-.79,3.32-1.97,6.52-3.51,9.56-2.28,4.89-7.22,7.99-12.61,7.91h-4.41c-3.22-.14-5.85-2.61-6.2-5.82-.05-.55-.04-1.1.04-1.65.07-.27.12-.57.19-.87.75-3.32,1.92-6.54,3.49-9.56h0ZM161.34,10.86h0c-2.59.02-4.9,1.64-5.82,4.06l-4.74,12.88c-.13.31-.19.64-.17.97h0c-.02,1.39,1.04,2.56,2.43,2.68h.7c2.59-.02,4.9-1.64,5.82-4.06l4.72-12.88c.13-.31.19-.64.17-.97h0c0-1.37-1.06-2.51-2.43-2.63l-.68-.05ZM85.16,25.89l11.63-17.39h4.21l-16.27,24.27h0c-.43.65-1.15,1.05-1.93,1.08h-4.19l-1.99-25.31h7.15l1.38,17.37h0ZM178.61,16.66v-.32l-6.45,17.43h-3.68l9.38-25.31h4.61l6.78,17.1,6.32-17.1h3.68l-9.38,25.31h-3.38c-.92-.05-1.73-.62-2.1-1.47l-5.82-15.66h.03Z"/>
  <path class="st1" d="M37.71,33.82h-7.61l9.35-25.31h7.6l-9.33,25.31h0ZM14.27,18.22h9.05l3.6-9.76h7.6l-8.76,23.76h0c-.36.9-1.23,1.5-2.21,1.52h-5.94l4.46-12.1h-9.07l-4.46,12.1H.94L10.27,8.43h7.6l-3.6,9.79ZM56.22,17.98l12.4-9.52h5.67l-12.68,9.76,8.04,15.57h-6.45s.05,0,.07,0c-.98.05-1.89-.48-2.32-1.35h0l-5.06-9.81-1.9,1.47-3.57,9.71h-7.6l9.33-25.31h7.6l-3.51,9.5v-.02Z"/>
</svg>