<?xml version="1.0" encoding="UTF-8"?>
<svg id="Layer_1" xmlns="http://www.w3.org/2000/svg" version="1.1" xmlns:xlink="http://www.w3.org/1999/xlink" viewBox="0 0 700 700">
  <!-- Generator: Adobe Illustrator 29.3.1, SVG Export Plug-In . SVG Version: 2.1.0 Build 151)  -->
  <defs>
    <style>
      .st0 {
        fill: #fff;
      }

      .st1 {
        fill: url(#linear-gradient);
      }
    </style>
    <linearGradient id="linear-gradient" x1="1209.31" y1="1721.7" x2="1490.79" y2="102.76" gradientTransform="translate(-311.64 -96.94) scale(.49)" gradientUnits="userSpaceOnUse">
      <stop offset="0" stop-color="#8259f7"/>
      <stop offset="1" stop-color="#f64ddc"/>
    </linearGradient>
  </defs>
  <path class="st1" d="M696.52,693.29c-2.59,4.37-7.52,5.36-12.17,5.37-37.79.14-75.59-.12-113.38-.06l-315.98.02-162.63.02h-53.32c-8.7,0-17.55.06-26.25-.06-2.99-.04-6.06-1.9-8.16-3.99-2.16-2.12-3.59-4.87-4.08-7.85-.47-2.81-.3-10.73-.31-13.98v-25.02c.14-29.77.06-59.54-.24-89.31L.15,197.44l.13-121.61v-40.07c0-7.15-.23-14.59.15-21.7C.84,6.46,6.5.54,14.22.47c10.55-.09,21.01-.06,31.52-.04h59.74C165.64.01,225.81-.11,285.98.1l264.13.03h87.55c15.54,0,31.1-.06,46.64.03,4.61-.16,8.04,1.47,11.26,4.78,5.58,5.72,4.06,17.18,4.06,24.95v28.81l-.04,92.52-.11,135.95.13,65.33c0,11.36.2,23.39-.08,34.72l.13,181.16.13,79.16c-.04,7.49-.03,14.98.02,22.48.06,7.55,1.32,17.04-3.28,23.29h0Z"/>
  <g>
    <path class="st0" d="M358.3,170.15c-4.84.66-11.51,2.66-15.36,4.6-9.48,4.81-16.71,11.66-21.52,20.39-2.48,4.57-3.59,7.38-4.78,12.2-1.43,5.92-1.58,8.67-1.46,24.51.12,13.99.15,14.47.93,18.71,1.11,6.07,1.55,7.92,2.78,11.27,2.3,6.4,5.92,12.64,10.55,18.17q1.76,2.12,1.58,15.36t-1.85,13.78c-11.51,3.65-14.14,4.48-15.54,4.87-.9.24-6.01,1.79-11.36,3.44-5.35,1.64-12.46,3.8-15.84,4.81-8.79,2.66-15.21,4.75-16.59,5.47-3.92,1.97-9.18,6.55-11.51,10.04-1.55,2.33-3.68,6.73-4.45,9.33-1.58,5.23-1.52,2.45-1.52,57.9s-.12,53.92,2.09,59.6c1.67,4.36,4.45,8.34,7.8,11.27,4.39,3.83,8.13,5.65,13.99,6.9,3.68.81,6.9.72,10.58-.27,1.29-.36,2.45-.57,2.63-.48.15.12.27,8.34.27,21.4q0,21.19,6.28,21.19,6.28,0,6.34-23.23.09-23.2,4.72-24.63c2.54-.81,5.71-1.73,7.02-2.06,1.32-.36,2.81-.81,3.35-1.05.51-.24,1.05-.45,1.17-.45.27,0,7.05-2.09,10.13-3.14,1.17-.39,2.9-.93,3.89-1.2s5.56-1.67,10.16-3.14c10.22-3.23,11.51-3.59,12.61-3.59.48,0,4.3.87,8.49,1.94s10.28,2.63,13.57,3.44c3.29.84,10.49,2.63,15.99,4.04,5.5,1.4,11.27,2.81,12.79,3.14,7.11,1.55,19.94,4.84,20.15,5.17.12.18.24,10.31.24,22.48q-.03,22.12,6.19,22.21,6.22.06,6.13-20.8c-.06-16.71,0-20.95.3-21.19.27-.24,1.35-.15,3.53.27,7.14,1.35,15.63-.6,21.37-4.84,5.65-4.21,9.27-9.36,11.42-16.29q.84-2.69.93-55.3c.06-36.17-.03-53.18-.24-54.46-1.79-10.61-8.16-19.58-17.13-24.18-1.32-.69-9-3.2-18.59-6.1-6.7-2-11.6-3.53-17.04-5.23-2.78-.87-6.28-1.91-7.77-2.33-2.27-.63-9.45-2.87-15.99-4.96q-1.64-.54-1.73-13.66-.06-13.15,1.46-14.92c6.49-7.59,10.67-16.23,12.67-26.16,1.49-7.32,1.64-9.45,1.64-24.63s-.15-17.25-1.7-23.35c-2.96-11.84-11.06-22.72-21.79-29.29-5.26-3.26-9.8-4.99-16.65-6.46-3.2-.69-11.93-1.02-15.3-.54ZM369.81,182.7c3.71.51,7.95,1.82,11.18,3.44,8.46,4.24,15.6,12.55,18.5,21.49,1.61,5.02,1.76,6.9,1.61,23.91-.09,14.47-.15,15.78-.75,18.98-1.79,9.39-6.01,17.52-12.52,24.12-6.85,6.9-16.32,11.81-22.96,11.84-1.52,0-2.99-.15-3.35-.33-.54-.3-.66-.27-.78.18-.63,2.3-2.45,8.58-2.9,9.86-.33.93-.42,1.64-.24,1.73.81.51,4.66,1.02,7.56,1.02,2.48,0,3.98-.18,6.13-.72,4.36-1.14,5.53-1.55,9.74-3.62,2.15-1.08,4.01-1.94,4.13-1.94.09,0,.18,8.34.18,18.53,0,13.42-.09,18.53-.33,18.53-.36,0-1.79-1.23-9.39-8.01q-4.42-3.95-9.83-3.95-5.41,0-6.9,1.2c-1.43,1.14-3.59,2.75-9.12,6.88-1.4,1.08-3.29,2.51-4.15,3.2-.87.72-1.7,1.29-1.88,1.29s-.27-9-.21-26.72q.09-26.72-2.87-29.83c-6.43-6.76-10.49-14.83-12.2-24.3-.63-3.38-.66-4.51-.66-19.43s.06-16.11.57-18.53c1.43-6.96,4.87-13.24,10.01-18.38,4.51-4.45,8.88-7.14,14.83-9.06,5.65-1.82,10.52-2.21,16.59-1.38ZM331.01,332.46q.09,10.49,8.52,10.49c9.21,0,6.96,1.11,23.67-11.6,1.76-1.35,2.93-1.35,4.42-.03.63.54,3.62,3.2,6.67,5.89,3.05,2.69,5.74,5.08,6.01,5.29.36.3,2.39.42,9.06.48q8.55.06,8.55-10.49c0-10.19.03-10.52.57-10.52.57,0,2.15.48,9.74,2.9,1.82.57,4.63,1.43,6.28,1.88s4.27,1.23,5.83,1.73c6.99,2.21,11.96,3.77,13.9,4.3,1.17.3,4.04,1.17,6.43,1.91,13.78,4.3,14.92,4.81,17.93,8.13,2.27,2.48,4.54,6.96,5.2,10.28.42,2.03.48,8.19.48,51.86-.03,53.54,0,52.31-1.61,55.84-.9,2-3.02,4.81-4.69,6.22-1.49,1.29-4.57,2.78-6.96,3.41-2.33.6-5.74.39-10.34-.6-1.88-.42-4.9-1.05-6.73-1.4-1.79-.36-6.52-1.43-10.46-2.39-3.95-.96-9-2.15-11.21-2.69-2.21-.51-8.61-2.06-14.2-3.5-5.59-1.4-11.51-2.87-13.15-3.26-4.66-1.08-5.83-1.43-5.86-1.76,0-.3,7.11-2.69,11.24-3.77,1.32-.33,4.69-1.32,7.47-2.18,6.19-1.94,10.82-3.29,18.08-5.26q5.53-1.49,14.35-1.49h9.18c.24,0,.3-.63.21-2.18-.06-1.17-.18-12.38-.24-24.87q-.12-22.72-6.34-22.72-6.22,0-6.13,18.5c.06,15.27.03,18.53-.33,18.74-.21.15-2.06.27-4.1.27-3.59,0-3.83.03-10.16,1.82-14.8,4.15-22.03,6.31-39.19,11.63-2.54.78-6.31,1.94-8.37,2.54-2.06.63-5.08,1.58-6.76,2.12-1.79.6-3.26.93-3.68.81-.48-.12-.78-.03-.99.3-.15.27-1.23.78-2.42,1.11-2.63.78-4.04,1.23-11.87,3.71-3.38,1.05-7.32,2.3-8.82,2.72-1.46.45-5.23,1.61-8.37,2.6-5.32,1.67-7.59,2.36-15.39,4.72-1.73.51-5.77,1.73-8.97,2.69-3.2.99-6.64,1.97-7.62,2.18-.99.24-3.08.81-4.69,1.23-4.63,1.26-7.32.93-11.75-1.4-1.91-1.05-2.75-1.7-4.27-3.5-1.97-2.36-3.29-4.81-3.98-7.32-.6-2.33-.42-102.92.21-105.67.66-2.84,2.81-7.02,4.72-9.15,3.2-3.53,4.66-4.18,19.01-8.52,3.86-1.17,9.18-2.81,11.81-3.62s6.99-2.15,9.71-2.99c6.55-1.97,11.06-3.35,15.39-4.72,5.56-1.76,4.9-2.96,4.99,9.3Z"/>
    <path class="st0" d="M358.45,348.72s-.03,12.61-.09,28.04q-.06,28.01,6.16,28.01t6.13-27.98-6.16-28.01c-3.32-.03-6.04-.06-6.04-.06Z"/>
    <path class="st0" d="M289.91,407.25c.12,9.27.09,15.13-.09,15.24-.63.39-7.89,1.14-10.13,1.05q-2.39-.09-2.39,6.16t3.44,6.19c1.88-.03,4.99-.24,6.88-.48s6.88-.84,11.06-1.35c13.36-1.58,17.4-2.09,20.77-2.54,10.55-1.38,25.65-3.29,30.94-3.89,3.38-.42,11.51-1.43,18.08-2.3q11.96-1.58,28.94-1.67,16.95-.09,16.95-6.34,0-6.28-15.87-6.28c-17.4,0-14.53-.24-42.72,3.44-3.05.39-6.4.78-7.47.9-2,.21-21.31,2.63-31.09,3.89-8.67,1.14-14.32,1.79-14.47,1.64-.24-.27-.45-8.67-.48-18.62q0-10.07-6.28-10.07-6.28,0-6.07,15.04Z"/>
    <path class="st0" d="M240.98,213.76c-7.86,1.02-15.51,4.96-21.22,10.97-4.42,4.6-7.92,10.94-9.68,17.43q-.93,3.44-.93,18.98t.87,18.83c1.58,6.04,5.41,12.82,9.57,16.89q1.67,1.61,1.67,10.61c0,10.16,1.91,8.19-15.69,16.02-3.77,1.67-10.04,4.45-13.9,6.16-3.86,1.73-7.71,3.44-8.55,3.83-3.92,1.73-8.97,5.92-11.84,9.8-1.88,2.51-4.15,7.23-5.08,10.58q-.69,2.33-.75,72.37l-.09,70.04,7.95,7.98q7.95,7.95,11.3,7.89c1.82-.03,3.8.06,4.36.18q1.05.24,1.2,6.28c.09,3.32.24,6.04.39,6.04h6.19q5.98,0,5.98-9.24,0-9.24.69-9.39c.36-.09,17.13-.18,37.24-.18q36.56-.03,36.62-6.16c0-3.92-.09-6.13-.27-6.13-.15,0-16.92-.03-37.22-.09l-36.92-.06-.09-52.91q-.06-52.91-6.34-52.91-6.28,0-6.34,56.05-.09,56.05-1.79,56.14-1.7.09-6.22-4.39-4.48-4.51-4.42-70.78.09-66.3.9-68.57c1.97-5.59,5.53-9.42,10.85-11.72,1.32-.57,4.07-1.82,6.13-2.75,2.06-.96,4.96-2.21,6.43-2.84,1.49-.63,4.18-1.82,5.98-2.63,1.82-.81,4.04-1.82,4.96-2.24s1.79-.69,1.88-.6c.09.12.18,4.01.18,8.67q0,8.46,10.67,8.46,10.64,0,16.83-6.13,6.19-6.13,8.01-6.13,1.85,0,1.85-6.28,0-6.28-4.33-6.28-4.3,0-10.52,6.13-6.22,6.13-8.1,6.13-1.85,0-1.79-5.26.09-5.29,3.08-6.55,2.99-1.29,3.08-17.43.06-16.17-.72-16.71c-5.53-3.86-9.48-9.15-10.91-14.77-.63-2.33-.66-3.38-.78-14.11-.15-12.05.03-14.92,1.08-18.74,1.46-5.23,5.05-10.37,9.6-13.75,5.8-4.27,12.64-5.68,19.94-4.01,3.65.81,8.04,3.2,11.21,6.04,1.67,1.49,4.69,5.62,5.56,7.53,2.12,4.81,2.45,7.44,2.45,20.77s-.33,15.99-2.66,20.8c-1.17,2.36-4.48,6.61-6.58,8.37-3.47,2.99-10.13,5.62-14.23,5.65q-1.2,0-1.11,6.19c.06,3.44.15,6.25.21,6.31.24.24,6.34-.63,8.7-1.26,1.46-.39,2.75-.66,2.87-.57.15.06.24,3.32.24,7.2q0,7.08,6.28,7.08,6.28,0,6.28-11.06,0-11.03,1.88-13c4.01-4.1,7.23-9.57,8.67-14.65,1.61-5.62,1.55-4.87,1.55-21.22q0-15.39-.99-19.13c-1.26-4.78-2.45-7.5-4.99-11.36-3.02-4.63-7.08-8.52-11.69-11.3-3.8-2.27-7.98-3.98-11.63-4.72-2.54-.51-10.34-.78-13-.42Z"/>
    <path class="st0" d="M477.3,213.79c-9.57,1.23-19.52,7.32-24.93,15.3-3.44,5.05-4.6,7.65-5.95,13.21q-.84,3.59-.84,18.38c0,11.09.09,15.24.39,16.59.81,3.62,1.94,7.23,2.93,9.3,1.52,3.17,4.69,7.74,7.05,10.19q2.06,2.15,2.03,12.97t6.04,10.76c3.32,0,6.13-.03,6.22-.03s.15-3.2.15-7.08c0-8.19-.39-7.44,3.44-6.43,2.18.6,7.98,1.43,8.22,1.23.06-.06.15-2.9.21-6.34q.09-6.19-1.11-6.19c-2.99,0-8.49-1.85-11.51-3.86-2.99-2-3.62-2.54-5.65-4.96-3.53-4.21-5.08-7.38-5.71-11.72-.15-1.11-.3-7.71-.3-14.68,0-13.72.12-15.18,1.7-19.19,2.33-5.86,8.28-11.63,14.29-13.84,10.46-3.89,21.31-.72,28.04,8.19,2.45,3.29,3.83,6.1,4.78,9.74.63,2.54.66,3.14.66,15.93s-.03,13.36-.69,15.84c-1.49,5.44-5.62,11.21-10.1,14.17q-1.46.93-1.46,17.19,0,16.23,2.99,17.49,2.99,1.26,3.08,6.52.06,5.26-1.35,5.38c-.81.09-1.67.06-1.94-.03-.3-.12-3.26-2.9-6.61-6.25q-6.07-6.04-10.46-6.04-4.39,0-4.39,6.28,0,6.28,1.88,6.28,1.85,0,7.98,6.13,6.13,6.1,16.83,6.13,10.67,0,10.67-8.49c0-4.69.12-8.58.24-8.67.15-.09,2.6.93,5.47,2.24s6.16,2.78,7.29,3.26c1.17.45,3.92,1.67,6.13,2.69s5.05,2.3,6.31,2.84c5.44,2.3,9.03,6.1,11.09,11.81q.69,1.94.78,68.42.06,66.48-4.42,70.93-4.51,4.45-6.22,4.36-1.7-.09-1.85-56.08-.15-55.99-6.28-55.99-6.13,0-6.28,52.85l-.15,52.85-37.07.06q-37.07.09-37.22,6.07c-.09,3.29-.12,6.1-.06,6.22.03.12,16.74.18,37.13.15q37.04-.06,37.39.57c.21.39.3,3.41.21,9.39-.03,4.84,0,8.79.15,8.79h6.19q5.98,0,5.98-6.1c0-5.5.06-6.13.51-6.31.3-.09,2.3-.15,4.48-.12q3.95.06,12.02-8.04l8.07-8.07.03-67.14c0-43.43-.12-68.15-.3-70.04-.84-7.86-3.95-14.26-9.6-19.7-2.36-2.27-5.74-4.63-8.19-5.71-.84-.36-3.5-1.55-5.98-2.66-4.48-2-11.24-4.99-19.13-8.49-8.55-3.77-12.26-5.47-12.61-5.74-.3-.24-.39-2.45-.39-9.18q0-8.88,1.82-10.64c4.04-3.98,7.68-10.31,9.24-16.05,1.35-5.05,1.58-8.55,1.43-21.7-.15-12.11-.24-13.09-1.85-18.74-3.26-11.69-13.99-22.39-25.65-25.56-4.13-1.11-10.49-1.46-15.3-.87Z"/>
    <path class="st0" d="M358.45,474.78c-.12.99-.12,12.49,0,12.49.09,0,2.84.03,6.13.03q5.98.03,5.98-6.22t-6.04-6.31c-3.35-.03-6.07-.03-6.07,0Z"/>
    <path class="st0" d="M358.42,499.82v6.25q-.03,6.07,6.07,6.07t6.07-6.19-6.07-6.22c-3.32-.03-6.04,0-6.07.09Z"/>
  </g>
</svg>