<?xml version="1.0" encoding="UTF-8"?>
<svg id="Layer_1" xmlns="http://www.w3.org/2000/svg" version="1.1" xmlns:xlink="http://www.w3.org/1999/xlink" viewBox="0 0 700 700">
  <!-- Generator: Adobe Illustrator 29.3.1, SVG Export Plug-In . SVG Version: 2.1.0 Build 151)  -->
  <defs>
    <style>
      .st0 {
        fill: #fff;
      }

      .st1 {
        fill: url(#linear-gradient);
      }
    </style>
    <linearGradient id="linear-gradient" x1="475.05" y1="567.33" x2="135.74" y2="-20.37" gradientTransform="translate(0 702) scale(1 -1)" gradientUnits="userSpaceOnUse">
      <stop offset="0" stop-color="#10aec3"/>
      <stop offset=".35" stop-color="#44c0cb"/>
      <stop offset=".78" stop-color="#7ed5d6"/>
      <stop offset=".99" stop-color="#96deda"/>
    </linearGradient>
  </defs>
  <path class="st1" d="M697.84,694.6c-2.59,4.38-7.53,5.37-12.19,5.38-37.86.14-75.73-.12-113.59-.06l-316.58.02-162.94.02h-53.42c-8.72,0-17.58.06-26.3-.06-3-.04-6.07-1.9-8.18-4-2.16-2.12-3.6-4.88-4.09-7.86-.47-2.82-.3-10.75-.31-14.01v-25.07c.14-29.83.06-59.65-.24-89.48L.15,197.81l.13-121.84v-40.14c0-7.16-.23-14.62.15-21.74C.84,6.47,6.51.54,14.25.47c10.57-.09,21.05-.06,31.58-.04h59.85C165.96.01,226.24-.11,286.52.1l264.63.03h87.71c15.57-.01,31.16-.06,46.73.03,4.62-.16,8.05,1.47,11.28,4.79,5.59,5.73,4.07,17.21,4.07,25v28.86l-.04,92.69-.11,136.2.13,65.45c0,11.38.2,23.43-.08,34.78l.13,181.51.13,79.31c-.04,7.5-.03,15.01.02,22.52.06,7.56,1.32,17.07-3.29,23.33h0Z"/>
  <g>
    <path class="st0" d="M317.34,160c-1.71.46-3.62,1.25-4.28,1.71-2.83,2.17-5.01,4.41-5.86,6.13-.92,1.78-5.6,21.48-8.24,34.66-.66,3.43-1.58,6.46-2.04,6.72-.46.33-4.88,2.17-9.88,4.22q-8.96,3.62-25.83-7.18c-10.94-6.98-17.92-11.07-19.96-11.53-3.82-.99-7.51-.4-11.53,1.71-4.28,2.31-23.79,22.14-25.56,25.96-1.65,3.69-1.78,10.34-.2,13.31.59,1.19,5.6,9.16,11.2,17.79,5.53,8.63,10.08,16.08,10.08,16.47s-.53,1.91-1.25,3.36c-.66,1.52-2.37,5.67-3.82,9.29-2.96,7.51.66,5.93-26.88,11.86-7.97,1.71-15.29,3.49-16.21,4.02-3.29,1.65-6.06,4.48-7.58,7.84-1.52,3.16-1.58,3.82-1.58,20.1s.07,16.93,1.58,20.16c1.84,3.95,5.47,7.12,9.62,8.43,1.65.53,10.81,2.64,20.43,4.74,9.62,2.04,17.66,3.89,17.86,4.15.66.59,7.84,18.18,7.84,19.04,0,.4-4.61,7.91-10.34,16.74-5.67,8.76-10.67,16.93-11.2,18.12-1.19,2.83-1.12,8.89.13,11.93,1.12,2.64,23.06,25.23,26.09,26.82.99.53,3.16,1.25,4.81,1.65,5.67,1.25,8.04.2,26.35-11.6,9.29-5.93,17.06-10.81,17.26-10.81.59,0,18.32,7.38,18.84,7.91.26.2.79,1.71,1.12,3.29,3.23,16.21,8.1,36.04,9.42,38.35.92,1.78,2.9,3.76,5.14,5.27q3.62,2.44,21.48,2.5t21.15-1.65c3.16-1.58,5.53-4.02,7.31-7.38.79-1.38,7.38-30.57,7.38-32.48,0-1.19-13.18-14.5-14.3-14.5-.4,0-.92.53-1.12,1.12-.79,2.44-7.64,34.79-7.64,35.91s-.86,1.19-11.99,1.19q-12.06,0-15.88-17.99c-2.11-9.82-4.41-19.17-5.07-20.69-2.37-5.34-6-8.1-16.8-12.65-5.47-2.31-11-4.61-12.45-5.07-3.62-1.32-10.67-1.12-13.9.33-1.45.66-9.42,5.53-17.66,10.81-8.24,5.34-15.22,9.69-15.48,9.69s-4.15-3.69-8.63-8.17q-8.1-8.1-5.14-12.65c12.12-18.58,17.72-27.94,18.65-31.1,1.58-5.4.79-9.75-3.36-18.91-.86-1.84-2.37-5.4-3.36-7.91-2.24-5.67-4.41-9.03-7.12-11.07-4.48-3.43-4.22-3.36-38.41-10.74q-4.81-1.05-4.81-12.85c0-6.46.13-11.79.33-11.79s5.21-1.05,11.07-2.37c5.86-1.25,14.03-3.03,18.18-3.95,8.7-1.91,10.61-2.7,14.43-6.46,3.43-3.23,3.62-3.62,9.16-16.74,3.95-9.36,4.35-10.81,4.41-14.96,0-6.06-.59-7.25-12.45-25.63q-9.69-15.09-1.58-23.19c4.48-4.48,8.37-8.17,8.63-8.17s7.64,4.61,16.41,10.21,17,10.48,18.32,10.87c5.73,1.58,9.22.92,21.28-4.02,18.91-7.71,19.5-8.43,23.85-28.27,1.71-7.77,3.62-16.47,4.15-19.3q.99-5.07,12.78-5.07c8.89,0,11.93.2,12.06.79.13.46,1.98,8.83,4.09,18.65,5.47,25.17,5.6,25.3,24.84,33.14,12.58,5.14,16.41,5.8,21.94,3.82,1.45-.46,9.55-5.4,18.05-10.87s15.75-9.95,16.14-9.95,4.35,3.62,8.76,8.1q8.1,8.1,4.15,14.03c-9.62,14.43-17.26,27.01-17.92,29.52-1.38,5.14-.53,9.22,4.61,21.68,2.96,7.12,5.73,12.65,6.98,14.17,3.49,4.02,7.45,5.73,19.77,8.37,6.19,1.32,14.36,3.16,18.32,4.09q7.05,1.65,7.05,13.38,0,11.73-4.74,12.78c-25.7,5.53-32.55,7.12-33.14,7.71-.4.4,1.84,3.1,6.59,7.84q7.25,7.18,11.53,6.26c21.48-4.61,27.01-5.93,29.06-6.98,3.43-1.71,7.58-6.65,8.43-10.15,1.19-4.68.99-31.63-.33-35.84-1.25-4.28-5.34-8.63-9.55-10.15-1.58-.53-10.74-2.7-20.36-4.74-9.62-2.04-17.79-3.82-18.18-3.95-.59-.2-7.71-16.27-8.3-18.84-.07-.53,4.48-8.3,10.15-17.2,11.4-17.66,12.39-19.57,12.39-23.65,0-6.19-.79-7.38-13.44-20.23-6.59-6.65-13.05-12.72-14.43-13.38-3.36-1.78-8.24-2.24-11.4-1.25-1.91.59-25.7,15.35-35.38,21.94-.92.66-19.7-6.92-20.36-8.24-.26-.46-2.31-9.29-4.48-19.63-4.55-21.41-5.34-23.32-11.07-26.75-1.84-1.12-4.55-2.24-5.86-2.5-4.61-.72-29.98-.33-33.27.53Z"/>
    <path class="st0" d="M323.86,239.85c-13.64,2.11-19.96,4.55-25.04,9.62-5.27,5.34-6.65,8.7-6.72,16.34,0,10.28.4,10.87,21.55,32.09q17.92,17.92,14.63,21.55c-1.78,1.91-3.36,3.56-3.56,3.62s-7.91-7.51-17.13-16.8c-9.22-9.29-18.05-17.72-19.57-18.78-4.28-2.96-7.84-4.02-13.7-4.09-4.61-.07-5.8.2-9.69,2.04-4.94,2.44-9.42,6.85-11.73,11.79-.79,1.71-2.24,6.39-3.16,10.41-1.52,6.46-1.71,8.63-1.78,19.44,0,11.79.07,12.52,2.24,20.69,4.02,15.48,11.53,28.4,23.06,39.93,12.45,12.39,25.04,19.5,42.56,23.85,5.14,1.25,7.71,1.45,18.78,1.45,7.64,0,14.03-.33,15.81-.79q2.96-.72,52.38,48.56c27.21,27.15,50.73,50.21,52.38,51.26,4.41,2.96,10.34,5.73,15.15,7.18,6.52,1.84,18.51,1.71,25.04-.26,8.57-2.7,13.57-5.73,20.1-12.32,4.94-4.88,6.46-6.92,8.7-11.53,7.45-15.42,6.39-32.75-2.83-47.31-1.58-2.44-19.5-20.95-51.79-53.24q-49.42-49.55-48.56-54.36c1.05-6.19,1.12-21.08,0-27.94-1.91-12.32-8.5-27.8-16.14-37.95-5.21-6.92-14.3-15.62-20.89-20.03-18.25-12.26-40.19-17.53-60.09-14.43ZM351.2,259.09c12.91,3.49,22.07,8.63,31.36,17.72,10.54,10.34,15.09,18.12,19.17,32.81,2.96,10.87,2.77,23.92-.72,35.78q-1.38,4.81,51.66,57.98c48.49,48.56,53.24,53.57,55.15,57.45,6.26,12.98,2.96,27.61-8.04,35.91-8.89,6.72-22.07,7.51-32.09,1.84-1.84-1.05-22.86-21.55-55.81-54.42q-52.84-52.78-58.64-51.33c-13.57,3.36-25.23,3.29-37.69-.26-27.61-7.91-47.44-32.42-49.81-61.54-.46-6.13.33-13.9,2.31-21.68,1.45-5.8,3.23-7.97,6.52-7.97,2.17,0,3.69,1.38,23.06,20.69,11.46,11.4,21.68,21.08,22.67,21.41,2.83,1.12,6.52.86,8.83-.53,1.12-.72,6.65-5.93,12.32-11.6,16.41-16.47,17-14.23-10.48-41.84-11.33-11.4-20.82-21.41-21.02-22.14-.26-.79-.13-2.17.2-3.1,1.12-2.9,3.16-3.82,14.56-6.33,4.94-1.12,20.62-.4,26.49,1.12Z"/>
    <path class="st0" d="M476.52,464.07c-3.49,2.11-4.88,4.48-4.88,8.3,0,7.38,6.79,12.12,13.38,9.29,8.04-3.43,8.04-13.97,0-18.12-2.17-1.12-6.19-.86-8.5.53Z"/>
  </g>
</svg>