<?xml version="1.0" encoding="UTF-8"?>
<svg id="Layer_1" xmlns="http://www.w3.org/2000/svg" version="1.1" xmlns:xlink="http://www.w3.org/1999/xlink" viewBox="0 0 700 700">
  <!-- Generator: Adobe Illustrator 29.3.1, SVG Export Plug-In . SVG Version: 2.1.0 Build 151)  -->
  <defs>
    <style>
      .st0 {
        fill: #fff;
      }

      .st1 {
        fill: url(#linear-gradient);
      }
    </style>
    <linearGradient id="linear-gradient" x1="161.54" y1="174.95" x2="675.47" y2="650.21" gradientTransform="translate(0 700) scale(1 -1)" gradientUnits="userSpaceOnUse">
      <stop offset="0" stop-color="#b282ff"/>
      <stop offset=".99" stop-color="#004997"/>
    </linearGradient>
  </defs>
  <path class="st1" d="M697,694.31c-3.07,4.37-8,5.36-12.65,5.37-37.79.14-75.59-.12-113.38.32l-315.99-1-162.64,1h-53.32c-8.7-.34-17.55-.28-26.25-.4-2.99-.04-6.06-1.9-8.16-3.99-2.16-2.12-3.59-4.87-4.08-7.85-.47-2.81-.3-10.73-.53-13.98v-25.02c.36-29.77,1-89.31,1-89.31L0,198.44l1-121.61v-40.07C.26,29.61.03,22.17.41,15.06.82,7.46,6.48,1.54,14.2,1.47c10.55-.09,21.01-.06,31.52-.47h59.74c60.17.01,180.51,1,180.51,1l264.14-1h87.55c15.54.12,31.1.07,46.64.16,4.61-.16,8.04,1.47,11.26,4.78,5.58,5.72,4.06,17.18,3.44,24.95v28.81l1,92.52v201.28l-1,34.72,1,181.17v79.16s-.25,14.98-.2,22.48c.06,7.55,1.32,17.04-2.8,23.29h0Z"/>
  <path class="st0" d="M336,150.66c-9.79,1.02-22.5,3.76-31.18,6.77-14.57,5.06-29.51,13.08-41.2,22.13-5.52,4.32-19.35,17.86-23.48,23.06-18.79,23.48-29.28,49.28-31.78,77.95-.65,7.19-.23,22.92.74,30.16,3.29,24.03,12.3,46.45,26.22,65.19,3.67,4.96,5.94,7.61,12.25,14.15,4.87,5.06,8.17,9.09,8.17,10.02,0,.28.46,1.53,1.07,2.78.68,1.51,1.1,17.04,1.25,46.59.19,32.39.37,44.64.79,45.52.74,1.72,3.8,3.99,5.8,4.36,3.2.6,6.68-2.09,7.75-6.08.32-1.3.46-15.4.32-45.94-.19-49.04,0-45.84-3.48-53.31-2-4.27-4.45-7.33-12.57-15.78-17.91-18.65-27.98-39.35-32.8-67.51-1.21-7.1-1.21-30.48,0-37.82,4.64-27.84,16.66-51.36,36.28-70.99,25.33-25.29,58.51-38.47,93.73-37.17,31.88,1.16,61.29,13.64,84.12,35.73,7.01,6.77,11.74,12.48,17.26,20.79,11,16.47,17.68,34.8,20,54.75,1.21,10.72,1.95,14.34,3.62,17.77.7,1.53,7.24,13.22,14.52,25.98,16.56,29.05,16.29,28.54,16.05,31.41-.19,1.76-.56,2.64-1.76,3.85-1.53,1.58-2.69,2.09-16.47,7.01-3.29,1.16-7.38,2.78-9.05,3.57-3.67,1.76-8.21,6.12-9.93,9.51-2.64,5.24-2.74,5.94-3.02,29.32-.19,14.39-.76,22.58-1.72,24.59-2.69,5.57-7.05,9.33-13.27,11.41-3.16,1.07-3.71,1.11-18.14,1.11-8.21,0-16.19.19-17.68.46-6.45,1.07-12.85,5.61-15.92,11.37-2.69,5.1-2.92,6.96-2.92,22.87,0,7.89.14,15.31.28,16.47.6,4.32,4.78,7.42,8.58,6.36,2.13-.6,4.55-3.16,5.1-5.38.28-1.02.56-8.49.6-16.66.14-14.11.19-14.94,1.11-16.8.56-1.07,1.62-2.37,2.37-2.88,1.3-.93,1.86-.97,17.77-.97,18.84,0,20.56-.28,28.07-3.94,7.38-3.62,13.32-9.56,16.8-16.66,3.53-7.33,3.43-6.45,3.76-30.21.19-14.01.46-21.76.84-22.55.28-.7,1.16-2,1.95-2.88,1.53-1.76,1.58-1.76,16.24-7.1,4.73-1.72,9.65-3.76,10.9-4.59,5.1-3.29,8.96-9,10.07-14.99.79-4.13-.05-8.12-2.78-13.78-1.86-3.8-19.44-35.08-25.1-44.73-4.45-7.52-4.96-9.23-6.31-20.83-.93-7.75-1.76-12.34-3.48-18.93-5.8-21.99-17.96-44.08-32.99-59.81-13.69-14.34-26.17-23.57-42.41-31.32-12.85-6.17-25.19-10.02-39.58-12.34-6.17-1.02-9.09-1.21-19.35-1.35-6.64-.09-13.83,0-16.01.23v.06Z"/>
  <path class="st0" d="M382.38,230.74c-9.51,1.81-17.08,5.43-19.26,9.23-2.23,3.76-.93,8.17,2.88,10.02,2.46,1.21,3.11,1.07,9.19-1.9,6.68-3.25,11.83-3.99,18.56-2.55,8.86,1.9,16.15,7.84,20.42,16.7,3.2,6.68,4.18,14.11,2.97,22.18-.7,4.5-2.37,8.63-5.38,13.22-2.64,3.99-4.5,6.36-20.09,25.33-5.24,6.36-14.48,17.63-20.6,25.06-6.08,7.42-12.67,15.45-14.57,17.77-1.95,2.37-3.76,4.32-4.04,4.27-.23,0-1.62-1.35-3.02-2.97-2.78-3.16-15.5-17.21-37.35-41.25-24.68-27.14-25.24-27.79-28.07-33.78-4.96-10.58-4.22-23.01,1.95-32.15,5.57-8.4,14.76-13.22,25.06-13.22,5.66,0,8.49.6,12.9,2.64,2.88,1.39,4.36,2.55,8.35,6.59,2.69,2.69,7.38,7.8,10.39,11.37,6.08,7.05,7.38,7.98,10.86,7.56,2.41-.28,4.13-1.44,5.38-3.57,1.11-1.9,1.21-5.24.14-7.28-1.62-3.11-19.12-21.48-23.34-24.55-14.52-10.44-35.73-9.79-51.04,1.58-13.22,9.84-20.28,25.89-18.33,41.71,1.07,8.82,4.83,18.28,9.88,24.92,3.99,5.29,52.11,58.32,64.59,71.22,5.75,5.89,10.25,7.61,15.54,5.85,4.22-1.39,5.52-2.83,33.27-36.66,6.08-7.42,15.03-18.33,19.95-24.22,14.06-16.89,16.84-21.02,19.63-28.72,2.32-6.4,2.97-10.95,2.69-19.44-.23-8.03-.97-11.79-3.62-18.1-5.1-12.3-16.94-22.64-29.65-25.98-2.97-.74-13.73-1.35-16.24-.88h0Z"/>
</svg>