<?xml version="1.0" encoding="UTF-8"?>
<svg id="Layer_1" xmlns="http://www.w3.org/2000/svg" version="1.1" xmlns:xlink="http://www.w3.org/1999/xlink" viewBox="0 0 700 700">
  <!-- Generator: Adobe Illustrator 29.3.1, SVG Export Plug-In . SVG Version: 2.1.0 Build 151)  -->
  <defs>
    <style>
      .st0 {
        fill: #fff;
      }

      .st1 {
        fill: url(#linear-gradient);
      }
    </style>
    <linearGradient id="linear-gradient" x1="161.5" y1="176.03" x2="675.41" y2="651.28" gradientTransform="translate(0 700) scale(1 -1)" gradientUnits="userSpaceOnUse">
      <stop offset="0" stop-color="#00c6ff"/>
      <stop offset=".99" stop-color="#0072ff"/>
    </linearGradient>
  </defs>
  <path class="st1" d="M696.52,693.29c-2.59,4.37-7.52,5.36-12.17,5.37-37.79.14-75.59-.12-113.38-.06l-315.98.02-162.63.02h-53.32c-8.7,0-17.55.06-26.25-.06-2.99-.04-6.06-1.9-8.16-3.99-2.16-2.12-3.59-4.87-4.08-7.85-.47-2.81-.3-10.73-.31-13.98v-25.02c.14-29.77.06-59.54-.24-89.31L.15,197.44l.13-121.61v-40.07c0-7.15-.23-14.59.15-21.7C.84,6.46,6.5.54,14.22.47c10.55-.09,21.01-.06,31.52-.04h59.74C165.64.01,225.81-.11,285.98.1l264.13.03h87.55c15.54,0,31.1-.06,46.64.03,4.61-.16,8.04,1.47,11.26,4.78,5.58,5.72,4.06,17.18,4.06,24.95v28.81l-.04,92.52-.11,135.95.13,65.33c0,11.36.2,23.39-.08,34.72l.13,181.16.13,79.16c-.04,7.49-.03,14.98.02,22.48.06,7.55,1.32,17.04-3.28,23.29h0Z"/>
  <path class="st0" d="M333.18,126.11c-.94.68-2.24,1.87-2.81,2.65-1.04,1.46-1.09,2.08-1.25,25.13-.1,20.45-.05,23.83.68,25.18,3.38,6.5,12.59,6.35,15.09-.21.73-1.82.78-5.41.68-25.39-.16-22.64-.21-23.26-1.25-24.72-1.82-2.5-4.27-3.8-6.97-3.8-1.67,0-2.97.36-4.16,1.14Z"/>
  <path class="st0" d="M204.7,171.9c-2.39,1.2-4.01,3.33-4.53,5.98-.73,3.85-.42,4.27,16.13,20.97,8.59,8.74,16.6,16.5,17.69,17.28,6.14,4.37,14.47-1.82,12.33-9.11-.57-1.87-3.12-4.63-16.86-18.42-13.58-13.63-16.55-16.39-18.52-17.07-3.02-1.04-3.54-.99-6.24.36Z"/>
  <path class="st0" d="M463.26,171.53c-1.09.52-8.43,7.39-17.85,16.81-16.96,16.91-18.06,18.32-17.33,22.06.99,5.36,7.34,8.9,11.6,6.5,1.77-.99,33.46-32.68,34.29-34.29,1.04-2.03.88-5.05-.47-7.44-1.93-3.43-6.76-5.15-10.25-3.64Z"/>
  <path class="st0" d="M323.45,208.27c-31.74,3.69-62.13,23.31-79.77,51.46-15.77,25.13-20.61,56.56-13.22,86.12,1.77,7.02,3.28,10.67,11.4,27.32,11.81,24.2,18.63,40.38,24.98,59.58,4.79,14.36,6.5,21.23,7.55,30.75.57,5.26,1.46,8.12,3.43,11.55,3.02,5.1,7.75,8.95,13.48,10.93,2.91.99,4.48,1.09,25.29,1.25q22.22.16,24.46-1.46c6.45-4.58,5.88-13.63-1.09-17.17-2.34-1.2-2.55-1.2-22.01-1.25-21.85,0-22.22-.05-23.16-3.23-.31-.94-.68-3.38-.88-5.36-1.72-18.26-15.66-56.87-34.03-94.18-9.89-19.98-11.19-24.2-12.59-39.34-1.4-15.3,1.56-31.27,8.53-45.89,12.33-25.86,36.68-44.85,64.47-50.32,2.97-.57,8.48-1.2,12.23-1.46,6.61-.42,7.02-.52,8.85-2.03,4.16-3.33,5.36-8.01,3.23-12.23-2.29-4.48-4.79-5.62-12.02-5.57-2.97.05-7.02.26-9.11.52Z"/>
  <path class="st0" d="M371.42,218.31c-2.86,1.46-2.71,1.3-7.18,9.11-1.72,3.02-3.54,6.09-4.11,6.87-2.76,3.69-9.63,7.23-14.15,7.23-9.42.05-17.48,8.48-16.81,17.69.26,4.21,1.72,7.55,4.58,10.67,3.07,3.33,5.41,4.37,12.38,5.52,15.4,2.5,27.21,8.07,37.62,17.64,11.81,10.88,19.1,24.77,21.49,41.11,2.08,14-.73,29.3-7.7,42.15-11.4,21.02-35.96,36.11-56.87,35.02-7.6-.42-13.11,1.98-16.65,7.34-5.62,8.48-2.81,19.62,6.14,24.51,2.65,1.46,3.17,1.51,11.66,1.87,8.53.31,9.05.42,12.23,1.93,4.58,2.19,7.28,5.15,11.66,12.7,4.48,7.7,6.35,9.31,11.08,9.68,2.81.21,3.64-.05,11.97-3.54,9.89-4.21,12.02-5.78,13.11-9.99.73-2.6.47-4.63-1.51-11.29-1.93-6.61-2.29-9.16-1.67-12.96.88-5.46,2.55-8.07,10.88-16.55,8.48-8.64,10.98-10.3,16.81-11.14,3.95-.57,5.78-.36,12.9,1.61,8.38,2.34,12.59,1.93,15.82-1.51.88-.94,2.86-5,5.1-10.41,3.9-9.68,4.27-11.81,2.6-15.45-1.25-2.76-3.12-4.27-9.78-7.91-9.31-5.05-12.96-9.83-13.74-18-.57-6.04-.57-16.7.05-20.35,1.09-6.87,5.41-12.07,13.84-16.65,6.19-3.38,7.81-4.68,9.05-7.08,1.87-3.69,1.46-6.56-2.34-15.56-4.06-9.73-5-11.14-8.27-12.8-3.38-1.67-5.15-1.61-11.76.31-7.18,2.08-10.88,2.6-14.36,2.03-5.57-.94-8.07-2.55-16.18-10.51-4.16-4.11-8.12-8.38-8.79-9.52-3.38-5.78-3.75-11.55-1.35-20.14.88-2.97,1.72-5.98,1.87-6.71.78-3.54-1.82-9.47-4.79-10.88-.78-.36-4.68-2.03-8.69-3.75-9.05-3.85-12.18-4.32-16.13-2.29Z"/>
  <path class="st0" d="M317.2,294.28c-4.94,2.34-5.26,3.02-3.8,8.17,1.14,3.95,1.14,4.21.31,6.35-.52,1.4-2.19,3.59-4.37,5.78-4.37,4.32-6.09,4.94-10.98,3.75-4.42-1.09-5.36-1.04-6.66.16-1.77,1.67-4.01,7.96-3.59,10.15.31,1.56.78,2.03,3.69,3.69,5,2.76,5.67,4.06,5.88,10.67.21,6.56-.47,8.27-4.37,10.77-4.42,2.86-4.84,3.28-5.15,5-.26,1.3.1,2.65,1.51,5.72,2.29,5.05,3.12,5.52,7.81,4.32,6.09-1.51,7.96-.94,12.49,3.64,4.79,4.94,5.1,6.19,3.54,13.69-.78,3.54-.1,4.42,5.05,6.61q4.48,1.87,6.24.88c.99-.52,2.29-1.93,3.02-3.28,2.71-4.94,5.05-6.24,11.34-6.24,5.57,0,8.07,1.14,10.04,4.48,2.13,3.69,3.95,5.41,5.67,5.41,1.93-.05,8.38-2.81,9.31-4.01.94-1.25.88-2.71-.16-6.66-1.2-4.42-.52-6.5,3.33-10.67,4.89-5.26,6.5-5.78,13.84-4.16,2.76.62,3.12.57,4.37-.31,1.35-1.04,4.27-7.34,4.27-9.47.05-1.46-1.93-3.43-5.31-5.41-3.8-2.19-4.53-3.85-4.53-10.2,0-7.02.99-8.95,6.04-11.45,2.65-1.35,3.38-2.24,3.43-4.16.05-1.67-1.82-6.87-3.17-8.79-1.14-1.56-3.43-1.93-6.56-.99-3.49,1.09-5.62,1.04-8.01-.16-2.39-1.25-7.7-6.92-8.17-8.69-.31-1.2-.21-2.86.68-9.47.16-1.46,0-2.5-.42-3.07-1.25-1.46-7.02-3.8-9.52-3.8q-2.29,0-4.58,3.75c-3.12,5.2-4.42,5.88-11.08,5.88-6.24,0-8.01-.78-10.46-4.68-3.54-5.67-4.84-6.04-10.98-3.17ZM343.69,316.14c15.66,3.02,25.81,18.42,21.96,33.3-2.5,9.63-8.69,16.5-17.8,19.77-5.26,1.87-12.38,1.93-17.69.1-11.29-3.8-18.84-14.26-18.84-26.02,0-13.69,9.99-25.34,23.42-27.32,4.21-.62,4.79-.62,8.95.16Z"/>
  <path class="st0" d="M152.88,300.27c-4.06,1.35-6.09,3.95-6.14,7.75-.05,3.02,1.3,5.57,3.8,7.28q1.77,1.2,25.97,1.04c23.31-.16,24.3-.21,25.65-1.2,4.94-3.75,4.32-11.4-1.14-14.21-2.29-1.14-2.45-1.14-24.72-1.09-12.28.05-22.84.21-23.42.42Z"/>
  <path class="st0" d="M473.67,301c-3.02,1.61-4.89,4.89-4.53,8.12.26,2.55,1.51,4.48,4.01,6.14q1.72,1.2,25.45,1.2c22.74,0,23.78-.05,25.45-1.04,2.55-1.56,3.75-3.9,3.75-7.39,0-2.71-.21-3.23-1.82-5-1.04-1.14-2.65-2.29-3.8-2.6-1.4-.42-8.79-.62-24.14-.62-22.06,0-22.11,0-24.35,1.2Z"/>
  <path class="st0" d="M284.06,504.82c-2.71,1.35-3.85,2.45-5.05,4.79-2.29,4.48-.16,10.82,4.37,13.32,1.56.83,5.36.88,53.7.88,51.77,0,52.04,0,54.12-1.09,5.98-3.12,7.23-11.92,2.24-16.08-3.54-3.02-.83-2.86-56.3-2.86-49.59.05-51.1.05-53.08,1.04Z"/>
  <path class="st0" d="M308.98,539.32c-3.17,1.77-5.05,5-5,8.43.05,4.27,1.82,7.39,5.36,9.16,1.82.94,3.43.99,27.99.99s26.17-.05,27.99-.99c3.54-1.77,5.31-4.84,5.31-9,0-3.64-1.3-5.98-4.37-8.12q-2.5-1.67-28.88-1.67t-28.41,1.2Z"/>
</svg>