<?xml version="1.0" encoding="UTF-8"?>
<svg id="Layer_1" xmlns="http://www.w3.org/2000/svg" version="1.1" viewBox="0 0 200 40">
  <!-- Generator: Adobe Illustrator 29.3.1, SVG Export Plug-In . SVG Version: 2.1.0 Build 151)  -->
  <defs>
    <style>
      .st0 {
        fill: #b3181f;
      }
    </style>
  </defs>
  <path class="st0" d="M102.51,30.46s-.03-.02-.03-.04v-11.19c0-.76.04-1.3.13-1.62.49-1.83,2.18-2.61,3.96-2.61,6.95,0,13.9,0,20.86,0,1.92,0,3.46.73,3.95,2.69.08.31.12.74.12,1.29,0,3.84,0,7.67,0,11.51,0,.03-.02.05-.05.05-2.1,0-4.19,0-6.28,0-.23,0-.42-.02-.58-.06-.03,0-.05-.03-.05-.07v-5.7s-.02-.04-.04-.04h-14.94s-.04.02-.04.04v5.79s-.02.04-.04.04c-2.14,0-4.29,0-6.44-.01-.15,0-.32-.02-.51-.05h0ZM110.92,17.9c-.85,0-1.4.7-1.41,1.51,0,.76,0,1.53,0,2.28,0,.02.02.04.04.04h15.05s.04-.01.04-.04c0-.74,0-1.47,0-2.21,0-.89-.31-1.6-1.33-1.6-4.13,0-8.27,0-12.4,0h0ZM91.65,24.17s-.02-.04-.04-.04h-16.64c-.78,0-1.35-.03-1.71-.09-1.6-.27-3.37-1-3.76-2.76-.05-.23-.08-.6-.08-1.1,0-1.71,0-3.42,0-5.13,0-.02.02-.03.04-.03,2.05,0,4.11,0,6.16,0,.24,0,.48.02.72.06.03,0,.04.02.04.05,0,1.65,0,3.29,0,4.94,0,.63.19,1.58.97,1.58,4.72,0,9.43,0,14.14,0,.03,0,.04-.01.04-.04v-6.55s.02-.04.04-.04c2.2,0,4.41,0,6.62,0,.18,0,.35.02.49.07.03,0,.05.03.05.06,0,3.65,0,7.3,0,10.95,0,1.38-.1,2.39-.91,3.35-.76.89-1.9,1.09-3.07,1.09-8.21,0-16.42,0-24.64,0-.23,0-.44-.03-.64-.08-.04,0-.05-.03-.05-.07v-2.63s.01-.05.05-.05c7.02,0,14.04,0,21.05,0,.75,0,1.09-.54,1.11-1.23.02-.78.02-1.55.02-2.33h0ZM142.44,25.29v5.22s-.01.04-.04.04c-2.18,0-4.35,0-6.53,0-.16,0-.31-.03-.44-.1-.03-.01-.04-.04-.04-.07,0-3.98,0-7.95,0-11.93,0-1.52.82-2.88,2.32-3.3.32-.09.85-.13,1.61-.13,6.93,0,13.85,0,20.78,0,1.68,0,3.66.68,4.19,2.43.08.27.12.67.12,1.2v2.78c0,.71-.05,1.22-.13,1.52-.28.97-.97,1.69-1.93,2.03-.79.28-1.7.23-2.42.26-.05,0-.06.02-.03.06l4,5.21s0,.02,0,.03c0,0,0,0-.01,0-2.79,0-5.58,0-8.37,0-.23,0-.37-.07-.51-.27-1.19-1.67-2.38-3.34-3.57-5.01-.01-.02-.04-.03-.06-.03h-8.9s-.04.01-.04.04h0ZM157.13,18.69c-.24-.48-.72-.8-1.27-.8-3.89,0-7.79,0-11.68,0-1.4,0-1.81.44-1.81,1.85,0,.73,0,1.46,0,2.18,0,.02.02.03.04.03,4.57,0,9.13,0,13.69,0,.49,0,.83-.19,1.01-.56.19-.4.22-2.31.02-2.71h0ZM195.09,15.1c.8.19,1.51.72,1.75,1.54.06.2.09.58.09,1.14,0,1.94,0,3.87,0,5.81,0,1.91-.98,3.84-2.63,4.85-1.92,1.19-3.99,1.87-6.21,2.06-.37.03-.95.05-1.74.05-5.73,0-11.45,0-17.18,0-.16,0-.3-.03-.41-.08-.03-.02-.05-.04-.05-.07v-12.88c0-1.04.52-2.04,1.51-2.38.24-.08.6-.12,1.09-.12,7.53,0,15.05,0,22.58,0,.58,0,.98.03,1.19.08h0ZM190.34,18.73c0-.53-.18-.84-.76-.84-4.77,0-9.54,0-14.31,0-.03,0-.04.01-.04.04v9.48s.02.04.04.04c2.38,0,4.77,0,7.15,0,1.76,0,3.85-.12,5.49-.82.88-.38,1.94-1.24,2.32-2.19.07-.19.11-.45.11-.78,0-1.65,0-3.29,0-4.94ZM10.06,30.5c-2.5,0-5.64-.37-6.42-3.32-.08-.29-.12-.7-.12-1.23,0-3.62,0-7.24,0-10.86,0-.03.02-.05.05-.05,2.36,0,4.77-.09,7.11.06.04,0,.06.03.06.07,0,3.55,0,7.1,0,10.64,0,.76.36,1.41,1.2,1.41,6.68,0,13.36,0,20.03,0,.31,0,.62.02.93.05.03,0,.05.02.05.05v3.13s-.01.04-.04.04c-7.62,0-15.24,0-22.86,0h0ZM40.18,30.51c-1.29,0-3.5-.25-3.5-2.03-.02-3.53-.02-7.06-.02-10.59,0-2.08,1.29-2.83,3.2-2.83,8.31-.01,16.62-.02,24.92-.02.27,0,.54.02.81.07.03,0,.05.03.05.06v2.93s0,.05-.04.05c-6.98,0-13.96,0-20.94,0-.77,0-.94.52-.94,1.21,0,.53,0,1.06,0,1.59,0,.03.02.05.05.05,7.01,0,14.02,0,21.02,0,.27,0,.54.02.8.05.03,0,.05.02.05.05v3.26s-.02.04-.04.04h-21.84s-.04.02-.04.04c0,.62,0,1.25,0,1.88,0,.63.16,1.15.87,1.15,6.63,0,13.25,0,19.88,0,.37,0,.72.02,1.06.05.06,0,.11.06.11.13v2.8s-.01.04-.04.04c-8.48,0-16.95,0-25.43,0h0Z"/>
</svg>