<?xml version="1.0" encoding="UTF-8"?>
<svg id="Layer_1" xmlns="http://www.w3.org/2000/svg" version="1.1" viewBox="0 0 200 40">
  <!-- Generator: Adobe Illustrator 29.3.1, SVG Export Plug-In . SVG Version: 2.1.0 Build 151)  -->
  <defs>
    <style>
      .st0 {
        fill: #a50034;
      }

      .st1 {
        fill: #fff;
      }

      .st2 {
        fill: #6b6b6b;
      }
    </style>
  </defs>
  <path class="st0" d="M15.94,35.67c8.14,0,14.74-6.6,14.74-14.74s-6.6-14.74-14.74-14.74S1.2,12.78,1.2,20.92s6.6,14.74,14.74,14.74"/>
  <polygon class="st1" points="15.35 14.45 15.35 27.38 19.46 27.38 19.46 26.23 16.53 26.23 16.53 14.45 15.35 14.45"/>
  <path class="st1" d="M11.23,17.98c.98,0,1.77-.79,1.77-1.76s-.79-1.77-1.77-1.77-1.76.79-1.76,1.77.79,1.76,1.76,1.76"/>
  <path class="st1" d="M16.53,8.59c-.15,0-.44-.01-.59-.01-6.8,0-12.33,5.54-12.33,12.34,0,3.3,1.28,6.39,3.61,8.72,2.34,2.33,5.44,3.61,8.73,3.61s6.39-1.28,8.73-3.61c2.32-2.33,3.6-5.43,3.6-8.72v-.56h-.49s-8.31,0-8.31,0v1.15h7.63v.17c-.39,5.82-5.25,10.43-11.16,10.43-2.99,0-5.79-1.16-7.91-3.27-2.11-2.11-3.28-4.92-3.28-7.91s1.16-5.8,3.28-7.91c2.11-2.12,4.92-3.28,7.91-3.28.14,0,.45,0,.59,0v-1.15h0Z"/>
  <polygon class="st2" points="41.67 11.32 37.27 11.32 37.27 30.37 50.79 30.37 50.79 26.66 41.67 26.66 41.67 11.32"/>
  <path class="st2" d="M60.48,23.11h3.58v3.33c-.66.25-1.95.51-3.17.51-3.96,0-5.28-2.01-5.28-6.1s1.26-6.2,5.22-6.2c2.2,0,3.46.69,4.5,2.01l2.74-2.51c-1.67-2.39-4.59-3.11-7.33-3.11-6.16,0-9.4,3.36-9.4,9.78s2.92,9.84,9.37,9.84c2.95,0,5.85-.75,7.42-1.85v-9.25h-7.64v3.55h0Z"/>
  <path class="st2" d="M74.81,11.33v19.02h12.72v-3.31h-8.81v-4.88h8.21v-3.23h-8.21v-4.35h8.5v-3.25h-12.41ZM89.02,30.35h3.83V11.26h-3.83v19.09ZM106.39,23.21c0-3.78-1.7-6.42-5.93-6.42s-6.43,2.52-6.43,6.87c0,4.62,1.68,7,6.61,7,2.34,0,4.49-.71,5.51-1.39l-.71-2.49c-1.13.58-2.78,1-4.12,1s-2.34-.39-2.76-.84c-.5-.55-.73-1.44-.73-2.36h8.55v-1.37h0ZM102.63,22.14h-4.8c.05-1.84.94-2.73,2.52-2.73,1.73,0,2.28,1.13,2.28,2.73M119.02,18.55c-.92-.95-2.7-1.68-4.7-1.68-4.64,0-6.84,2.1-6.84,6.95s1.76,6.9,6.71,6.9c2.05,0,3.8-.5,4.77-1.1l-.79-2.62c-.97.47-2.2.81-3.64.81-2.05,0-3.36-1.13-3.36-3.93,0-3.04,1.13-4.17,3.17-4.17,1.13,0,2.1.47,2.73,1.05l1.94-2.2h0ZM130.37,17.13h-4.43v-3.17l-3.75.62v2.55h-2.28v2.97h2.28v5.82c0,3.49,1.07,4.75,4.12,4.75,1.71,0,3.33-.37,4.59-1.05l-.55-2.73c-.81.42-1.89.66-2.65.66-1.29,0-1.76-.42-1.76-2.1v-5.32h4.43v-2.99h0ZM132.25,17.13v13.22h3.8v-9.1c.66-.84,1.86-1.36,3.09-1.36.68,0,1.44.18,1.86.42l.87-3.07c-.58-.31-1.55-.44-2.44-.44-1.29,0-2.88.57-3.69,1.65v-1.31s-3.49,0-3.49,0h0ZM148.42,16.79c-4.83,0-6.87,2.28-6.87,6.89,0,4.33,1.47,6.98,6.32,6.98s6.9-2.23,6.9-6.85-1.47-7.03-6.35-7.03M150.91,23.58c0,3.04-.58,4.33-2.96,4.33-1.99,0-2.54-1.55-2.54-4.2,0-2.99.63-4.17,2.94-4.17,2.12,0,2.57,1.58,2.57,4.04M156.13,17.13v13.22h3.8v-9.73c.47-.34,1.42-.68,2.21-.68,1.86,0,2.25.74,2.25,2.2v8.21h3.8v-9.13c0-2.65-.94-4.41-4.12-4.41-1.47,0-3.02.37-4.38,1.21v-.89h-3.56,0ZM170.06,14.27h3.86v-3.07h-3.86v3.07ZM170.08,30.35h3.8v-13.22h-3.8v13.22ZM186.71,18.5c-.92-.95-2.7-1.68-4.69-1.68-4.64,0-6.84,2.1-6.84,6.95s1.76,6.9,6.71,6.9c2.04,0,3.8-.5,4.77-1.1l-.79-2.62c-.97.47-2.2.81-3.65.81-2.05,0-3.36-1.13-3.36-3.93,0-3.04,1.13-4.17,3.17-4.17,1.13,0,2.1.47,2.73,1.05l1.94-2.2h0ZM198.7,17.97c-1.55-.71-3.04-1.15-5.19-1.15-3.7,0-5.66,1.57-5.66,4.01s1.6,3.62,3.64,4.09l1.49.34c1.34.29,2.18.74,2.18,1.39,0,.81-.84,1.23-2.04,1.23-1.52,0-3.31-.5-4.41-1.13l-.97,2.72c1.34.71,3.02,1.24,5.35,1.24,3.54,0,5.72-1.39,5.72-4.31,0-1.94-1.2-3.04-2.8-3.51-.45-.13-1.26-.37-1.84-.5-1.39-.29-2.78-.58-2.78-1.63,0-.79.84-1.21,2.21-1.21,1.52,0,2.99.39,4.04.97l1.08-2.57h0Z"/>
</svg>