<?xml version="1.0" encoding="UTF-8"?>
<svg id="Layer_1" xmlns="http://www.w3.org/2000/svg" version="1.1" viewBox="0 0 200 40">
  <!-- Generator: Adobe Illustrator 29.3.1, SVG Export Plug-In . SVG Version: 2.1.0 Build 151)  -->
  <defs>
    <style>
      .st0 {
        fill: #6b6b6b;
      }
    </style>
  </defs>
  <polygon class="st0" points="9.77 8.7 4.57 8.7 4.57 31.22 20.55 31.22 20.55 26.84 9.77 26.84 9.77 8.7"/>
  <path class="st0" d="M31.99,22.64h4.23v3.94c-.78.3-2.3.6-3.75.6-4.68,0-6.24-2.38-6.24-7.21s1.48-7.32,6.17-7.32c2.6,0,4.09.82,5.31,2.38l3.24-2.97c-1.97-2.82-5.43-3.68-8.66-3.68-7.28,0-11.11,3.98-11.11,11.55s3.46,11.63,11.07,11.63c3.49,0,6.91-.89,8.77-2.19v-10.92h-9.03v4.2h0Z"/>
  <path class="st0" d="M48.93,8.73v22.47h15.03v-3.91h-10.41v-5.76h9.7v-3.81h-9.7v-5.15h10.04v-3.84h-14.66ZM65.72,31.2h4.52V8.64h-4.52v22.56ZM86.24,22.76c0-4.46-2.01-7.59-7-7.59s-7.59,2.97-7.59,8.12c0,5.45,1.98,8.28,7.81,8.28,2.76,0,5.3-.84,6.51-1.64l-.84-2.95c-1.33.68-3.29,1.18-4.86,1.18s-2.76-.46-3.26-.99c-.59-.65-.86-1.7-.86-2.79h10.1v-1.62h0ZM81.8,21.49h-5.67c.06-2.17,1.11-3.22,2.97-3.22,2.05,0,2.69,1.33,2.69,3.22M101.17,17.25c-1.09-1.12-3.19-1.98-5.55-1.98-5.49,0-8.09,2.48-8.09,8.21s2.08,8.15,7.93,8.15c2.42,0,4.49-.59,5.64-1.3l-.93-3.1c-1.15.56-2.6.96-4.31.96-2.42,0-3.97-1.33-3.97-4.65,0-3.59,1.33-4.93,3.75-4.93,1.33,0,2.48.56,3.22,1.24l2.29-2.6h0ZM114.57,15.57h-5.24v-3.75l-4.43.73v3.02h-2.7v3.5h2.7v6.88c0,4.12,1.27,5.61,4.86,5.61,2.02,0,3.94-.43,5.42-1.24l-.65-3.22c-.96.5-2.23.78-3.13.78-1.52,0-2.08-.5-2.08-2.48v-6.29h5.24v-3.54h0ZM116.8,15.57v15.62h4.49v-10.76c.78-.99,2.2-1.61,3.66-1.61.81,0,1.7.22,2.2.5l1.03-3.63c-.68-.37-1.83-.52-2.88-.52-1.52,0-3.4.68-4.36,1.95v-1.55s-4.13,0-4.13,0h0ZM135.9,15.17c-5.7,0-8.12,2.69-8.12,8.15,0,5.12,1.74,8.24,7.47,8.24s8.15-2.63,8.15-8.09-1.73-8.3-7.5-8.3M138.85,23.2c0,3.6-.68,5.11-3.5,5.11-2.36,0-3-1.83-3-4.96,0-3.53.74-4.93,3.47-4.93,2.51,0,3.04,1.86,3.04,4.77M145.02,15.57v15.62h4.49v-11.5c.56-.4,1.67-.81,2.61-.81,2.2,0,2.66.87,2.66,2.6v9.7h4.49v-10.78c0-3.13-1.11-5.21-4.86-5.21-1.74,0-3.57.43-5.18,1.43v-1.06h-4.21,0ZM161.47,12.2h4.56v-3.62h-4.56v3.62ZM161.5,31.2h4.49v-15.62h-4.49v15.62ZM181.14,17.19c-1.08-1.12-3.19-1.98-5.55-1.98-5.48,0-8.09,2.48-8.09,8.21s2.08,8.15,7.93,8.15c2.42,0,4.49-.59,5.64-1.3l-.93-3.1c-1.15.56-2.6.96-4.31.96-2.42,0-3.97-1.33-3.97-4.65,0-3.59,1.33-4.93,3.75-4.93,1.33,0,2.48.56,3.22,1.24l2.29-2.6h0ZM195.31,16.57c-1.83-.84-3.59-1.36-6.13-1.36-4.37,0-6.69,1.86-6.69,4.74s1.89,4.27,4.31,4.83l1.77.4c1.58.34,2.57.87,2.57,1.64,0,.96-.99,1.46-2.42,1.46-1.8,0-3.91-.59-5.21-1.33l-1.15,3.22c1.58.84,3.57,1.46,6.32,1.46,4.18,0,6.75-1.65,6.75-5.09,0-2.29-1.42-3.59-3.31-4.15-.53-.15-1.49-.43-2.17-.59-1.64-.34-3.29-.68-3.29-1.92,0-.93.99-1.43,2.61-1.43,1.8,0,3.53.47,4.77,1.15l1.27-3.03h0Z"/>
</svg>