<?xml version="1.0" encoding="UTF-8"?>
<svg id="Layer_1" data-name="Layer 1" xmlns="http://www.w3.org/2000/svg" viewBox="0 0 200 200">
  <defs>
    <style>
      .cls-1 {
        fill: #fff;
      }

      .cls-1, .cls-2 {
        fill-rule: evenodd;
      }

      .cls-2 {
        fill: #00b900;
      }
    </style>
  </defs>
  <path class="cls-2" d="M100,200c55.08,0,100-44.92,100-100S155.08,0,100,0,0,44.92,0,100s44.92,100,100,100Z"/>
  <g>
    <path class="cls-1" d="M163.13,91.11c0-28.25-28.32-51.23-63.13-51.23s-63.13,22.98-63.13,51.23c0,22.49,17.71,41.73,42.92,48.57,3.93,1.06,9.25,1.41,12.63,2.8.34.14.67.29.97.46,2.85,1.58,2.43,4.66,2.05,7.53,0,0-.74,4.45-.9,5.4-1.47,8.53,9.59,1.86,13.59-.08,24.14-11.76,55.01-38.37,55.01-64.69Z"/>
    <path class="cls-2" d="M87.17,77.46h-4.43c-.68,0-1.23.55-1.23,1.23v27.51c0,.68.55,1.23,1.23,1.23h4.43c.68,0,1.23-.55,1.23-1.23v-27.51c0-.68-.55-1.23-1.23-1.23h0ZM117.65,77.46h-4.42c-.68,0-1.23.55-1.23,1.23v16.35l-12.61-17.03s-.06-.09-.09-.12c0,0,0,0,0,0-.03-.03-.05-.05-.07-.07,0,0-.02-.02-.03-.02-.02-.02-.04-.04-.06-.06,0,0-.02-.02-.03-.03-.02-.01-.04-.03-.06-.04-.01,0-.03-.01-.04-.02-.02-.01-.04-.03-.06-.04-.01,0-.03-.01-.04-.02-.03,0-.05-.02-.07-.03-.01,0-.03-.01-.04-.01-.03,0-.05-.02-.07-.03-.01,0-.03,0-.04-.01-.03,0-.05,0-.07-.01-.01,0-.03,0-.05,0-.02,0-.04,0-.06,0-.02,0-.04,0-.06,0h-4.47c-.68,0-1.23.55-1.23,1.23v27.51c0,.68.55,1.23,1.23,1.23h4.43c.68,0,1.23-.55,1.23-1.23v-16.34l12.62,17.04c.09.12.19.22.31.3,0,0,.01,0,.02,0,.02.02.05.03.07.05.01,0,.02.01.03.02.02,0,.04.02.06.03.02,0,.04.02.06.03.01,0,.02,0,.04.01.03,0,.06.02.08.03,0,0,.01,0,.02,0,.1.03.21.04.32.04h4.42c.68,0,1.23-.55,1.23-1.23v-27.51c0-.68-.55-1.23-1.23-1.23h0ZM76.5,100.53h-12.04v-21.85c0-.68-.55-1.23-1.23-1.23h-4.43c-.68,0-1.23.55-1.23,1.23v27.5h0c0,.33.13.63.34.85,0,0,0,.01.02.02,0,0,.01.01.02.02.22.21.52.34.85.34h17.69c.68,0,1.23-.55,1.23-1.23v-4.42c0-.68-.55-1.23-1.23-1.23h0ZM142.11,84.35c.68,0,1.23-.55,1.23-1.23v-4.43c0-.68-.55-1.23-1.23-1.23h-17.69c-.34,0-.63.13-.85.35,0,0,0,0-.01.01,0,0-.02.01-.02.02-.21.22-.34.51-.34.85h0v27.5h0c0,.33.13.63.34.85,0,0,0,.01.02.02,0,0,0,.01.02.02.22.21.52.34.85.34h17.69c.68,0,1.23-.55,1.23-1.23v-4.42c0-.68-.55-1.23-1.23-1.23h-12.03v-4.65h12.03c.68,0,1.23-.55,1.23-1.23v-4.43c0-.68-.55-1.23-1.23-1.23h-12.03v-4.65h12.03Z"/>
  </g>
</svg>