<?xml version="1.0" encoding="UTF-8"?>
<svg id="Layer_1" data-name="Layer 1" xmlns="http://www.w3.org/2000/svg" xmlns:xlink="http://www.w3.org/1999/xlink" viewBox="0 0 200 199.47">
  <defs>
    <style>
      .cls-1 {
        fill: #fff;
      }

      .cls-2 {
        fill: url(#linear-gradient);
      }
    </style>
    <linearGradient id="linear-gradient" x1="186.76" y1="150.2" x2="13.33" y2="50.07" gradientUnits="userSpaceOnUse">
      <stop offset="0" stop-color="#008cff"/>
      <stop offset="1" stop-color="#d552d9"/>
    </linearGradient>
  </defs>
  <rect class="cls-1" x="26.34" y="40.01" width="150.57" height="116.64"/>
  <path class="cls-2" d="M100,0C44.76,0,0,44.76,0,100c5.25,132.65,194.77,132.61,200,0,0-55.24-44.76-100-100-100ZM34.41,137.76c-1.52,1.52-4.1.45-4.1-1.69V60.41c0-5.28,4.28-9.59,9.59-9.59h81.45c5.28,0,9.59,4.31,9.59,9.59v50.31c0,5.28-4.31,9.59-9.59,9.59H51.86l-17.45,17.45ZM168.24,154.24c0,2.14-2.59,3.21-4.1,1.69l-17.45-17.48h-69.48c-5.77.04-10.11-5.07-9.59-10.76h52.72c9.9,0,17.97-8.07,17.97-17.97v-40.72h20.34c5.31,0,9.59,4.28,9.59,9.59v75.66ZM111.76,65.21h-62.28c-2,0-3.62,1.62-3.62,3.59s1.62,3.59,3.62,3.59h62.28c4.67,0,4.71-7.15,0-7.17ZM111.76,96.34h-62.28c-2,0-3.62,1.62-3.62,3.59s1.62,3.62,3.62,3.62h62.28c4.66-.01,4.73-7.18,0-7.21ZM106.97,87.97c4.68-.02,4.7-7.17,0-7.17,0,0-52.69,0-52.69,0-4.74.06-4.77,7.08,0,7.17,0,0,52.69,0,52.69,0Z"/>
</svg>