<?xml version="1.0" encoding="UTF-8"?>
<svg id="Layer_1" xmlns="http://www.w3.org/2000/svg" version="1.1" viewBox="0 0 200 40">
  <!-- Generator: Adobe Illustrator 29.3.1, SVG Export Plug-In . SVG Version: 2.1.0 Build 151)  -->
  <defs>
    <style>
      .st0 {
        fill: #1428a0;
      }
    </style>
  </defs>
  <path id="svg_1" class="st0" d="M164.52,28.17h-.15l-6.48-22.56h-10.46v28.44h6.93l-.39-23.34h.15l6.96,23.34h10.04V5.61h-6.98l.38,22.56ZM31.44,5.61l-5.22,28.74h7.62l3.86-26.09h.16l3.76,26.09h7.57l-5.19-28.74h-12.55ZM74.03,5.61l-3.48,21.97h-.16l-3.46-21.97h-11.5l-.62,28.74h7.05l.18-25.84h.16l4.71,25.84h7.15l4.71-25.83h.16s.18,25.83.18,25.83h7.05l-.62-28.74h-11.5ZM8.76,13c-.13-.59-.1-1.18-.03-1.5.2-.92.81-1.93,2.58-1.93,1.65,0,2.62,1.04,2.62,2.6v1.78h7.04v-2.01c0-6.27-5.52-7.25-9.51-7.25-5.01,0-9.1,1.7-9.86,6.39-.21,1.26-.23,2.41.07,3.87,1.22,5.87,11.24,7.57,12.69,11.29.27.69.18,1.59.05,2.13-.23.94-.86,1.92-2.74,1.92-1.76,0-2.83-1.03-2.83-2.6v-2.79H1.27v2.22c0,6.41,4.94,8.34,10.24,8.34s9.29-1.76,9.97-6.56c.34-2.49.09-4.12-.03-4.73-1.19-6.02-11.89-7.8-12.69-11.17ZM100.47,13.07c-.14-.57-.1-1.16-.03-1.47.2-.92.8-1.92,2.55-1.92,1.63,0,2.59,1.03,2.59,2.57v1.76h6.96v-1.99c0-6.19-5.46-7.17-9.41-7.17-4.97,0-9.02,1.66-9.76,6.32-.21,1.25-.24,2.4.06,3.83,1.21,5.81,11.13,7.5,12.57,11.17.26.69.18,1.58.05,2.11-.23.95-.86,1.9-2.72,1.9-1.75,0-2.81-1.01-2.81-2.56v-2.77h-7.5v2.2c0,6.34,4.9,8.25,10.15,8.25s9.19-1.74,9.86-6.49c.34-2.46.09-4.07-.03-4.68-1.18-5.96-11.77-7.73-12.56-11.07ZM132.43,26.86c0,.37,0,.79-.07,1.1-.14.71-.74,2.07-2.7,2.07s-2.56-1.35-2.7-2.07c-.06-.31-.07-.73-.07-1.1V5.61h-7.12v20.6c-.01.53.04,1.61.07,1.9.48,5.36,4.65,7.09,9.83,7.09s9.34-1.73,9.84-7.09c.03-.29.08-1.37.07-1.9V5.61h-7.14v21.26h0ZM188.52,18.19v4.21h2.89v4.17c0,.36,0,.76-.07,1.09-.13.77-.85,2.08-2.88,2.08s-2.75-1.31-2.89-2.08c-.05-.33-.07-.73-.06-1.09v-13.15c0-.47.03-.98.11-1.35.15-.71.76-2.09,2.81-2.09,2.16,0,2.69,1.46,2.82,2.09.08.4.09,1.09.09,1.08v1.62h7.1v-.96s.03-.98-.06-1.88c-.52-5.4-4.9-7.11-9.89-7.11s-9.27,1.72-9.89,7.11c-.06.46-.12,1.37-.12,1.88v12.09c0,.54.02.94.1,1.9.46,5.23,4.92,7.11,9.91,7.11s9.45-1.87,9.92-7.11c.08-.96.09-1.36.09-1.9v-7.71h-9.98Z"/>
</svg>