<?xml version="1.0" encoding="UTF-8"?>
<svg id="Layer_1" xmlns="http://www.w3.org/2000/svg" version="1.1" xmlns:xlink="http://www.w3.org/1999/xlink" viewBox="0 0 200 40">
  <!-- Generator: Adobe Illustrator 29.3.1, SVG Export Plug-In . SVG Version: 2.1.0 Build 151)  -->
  <defs>
    <style>
      .st0 {
        fill: url(#linear-gradient1);
      }

      .st0, .st1 {
        stroke-width: .25px;
      }

      .st0, .st1, .st2 {
        stroke: #fff;
        stroke-miterlimit: 10;
      }

      .st1 {
        fill: url(#linear-gradient);
      }

      .st2 {
        fill: #727d84;
        stroke-width: .5px;
      }
    </style>
    <linearGradient id="linear-gradient" x1="109.64" y1="39.04" x2="109.64" y2="8.34" gradientTransform="translate(139.12) rotate(-180) scale(1 -1)" gradientUnits="userSpaceOnUse">
      <stop offset=".25" stop-color="#242ff4"/>
      <stop offset=".39" stop-color="#3528f2"/>
      <stop offset=".67" stop-color="#6217ee"/>
      <stop offset="1" stop-color="#a000e9"/>
    </linearGradient>
    <linearGradient id="linear-gradient1" x1="17.45" y1=".96" x2="17.45" y2="31.66" gradientUnits="userSpaceOnUse">
      <stop offset="0" stop-color="#55f7c8"/>
      <stop offset=".21" stop-color="#53f3c8"/>
      <stop offset=".38" stop-color="#4fe9c9"/>
      <stop offset=".54" stop-color="#48d7ca"/>
      <stop offset=".7" stop-color="#3ebfcd"/>
      <stop offset=".84" stop-color="#319fd0"/>
      <stop offset=".99" stop-color="#2279d3"/>
      <stop offset="1" stop-color="#2176d4"/>
    </linearGradient>
  </defs>
  <polygon class="st1" points="19.97 34.64 27.26 34.64 38.98 5.36 31.2 5.36 19.97 34.64"/>
  <polygon class="st0" points="26.96 34.64 19.67 34.64 7.94 5.36 15.72 5.36 26.96 34.64"/>
  <g>
    <path class="st2" d="M43.26,32.17c-1.33-.25-2.42-.59-3.27-1.01v-4.25c1.12.55,2.28.96,3.49,1.24s2.36.41,3.46.41c1.23,0,2.16-.21,2.79-.63.63-.42.95-1.01.95-1.78,0-.55-.16-1.01-.48-1.4-.32-.38-.78-.72-1.38-1.03-.6-.31-1.53-.71-2.77-1.22-2.07-.85-3.57-1.79-4.5-2.84s-1.4-2.34-1.4-3.88c0-1.25.34-2.35,1.01-3.31.68-.96,1.63-1.71,2.85-2.24,1.23-.53,2.64-.79,4.25-.79,1.31,0,2.47.11,3.49.32s2.01.54,2.98.98v4.12c-1.86-.93-3.72-1.4-5.58-1.4-1.18,0-2.11.21-2.79.62-.68.41-1.02,1-1.02,1.76,0,.55.16,1,.48,1.36.32.36.76.68,1.33.95.57.28,1.5.68,2.79,1.21,1.5.63,2.67,1.24,3.52,1.82.85.58,1.47,1.27,1.87,2.06.4.79.6,1.77.6,2.93,0,2.01-.72,3.57-2.17,4.69-1.45,1.12-3.61,1.68-6.48,1.68-1.35,0-2.7-.13-4.03-.38Z"/>
    <path class="st2" d="M58.64,9.9h4.82v22.17h-4.82V9.9Z"/>
    <path class="st2" d="M71.87,31.13c-1.82-.94-3.22-2.28-4.22-4.01s-1.49-3.77-1.49-6.12.5-4.39,1.49-6.14,2.4-3.09,4.22-4.03c1.82-.94,3.91-1.41,6.28-1.41,1.61,0,3.03.16,4.27.49,1.24.33,2.37.84,3.41,1.54v4.6c-.93-.76-1.99-1.32-3.19-1.66-1.19-.35-2.55-.52-4.07-.52-1.42,0-2.69.29-3.82.87-1.13.58-2.02,1.41-2.68,2.49s-.98,2.34-.98,3.77.3,2.73.9,3.82c.6,1.09,1.45,1.93,2.55,2.52,1.1.59,2.37.89,3.81.89,1.31,0,2.45-.23,3.42-.7v-4.28h-3.58v-3.55h8.24v10.69c-2.09,1.44-4.85,2.16-8.28,2.16-2.37,0-4.46-.47-6.28-1.41Z"/>
    <path class="st2" d="M89.12,9.9h4.69l9.26,14.33v-14.33h4.82v22.17h-4.66l-9.29-14.33v14.33h-4.82V9.9Z"/>
    <path class="st2" d="M116.48,13.93h-6.47v-4.03h17.76v4.03h-6.47v18.14h-4.82V13.93Z"/>
    <path class="st2" d="M129.9,9.9h15.38v4.03h-10.56v5.14h7.77v3.87h-7.77v5.11h10.56v4.03h-15.38V9.9Z"/>
    <path class="st2" d="M152.22,31.13c-1.82-.94-3.22-2.28-4.22-4.01-.99-1.73-1.49-3.77-1.49-6.12s.5-4.39,1.49-6.14c.99-1.74,2.4-3.09,4.22-4.03,1.82-.94,3.91-1.41,6.28-1.41,3.07,0,5.62.7,7.67,2.09v4.57c-.93-.78-1.99-1.35-3.19-1.7-1.19-.35-2.55-.52-4.08-.52-2.3,0-4.13.64-5.47,1.92-1.34,1.28-2.01,3.02-2.01,5.22s.68,3.97,2.03,5.25,3.17,1.92,5.45,1.92c1.56,0,2.95-.18,4.15-.55s2.33-.97,3.36-1.79v4.57c-1.95,1.44-4.59,2.16-7.93,2.16-2.37,0-4.46-.47-6.28-1.41Z"/>
    <path class="st2" d="M169.12,9.9h4.82v8.88h9.67v-8.88h4.82v22.17h-4.82v-9.29h-9.67v9.29h-4.82V9.9Z"/>
  </g>
</svg>